<svg id="Layer_1" enable-background="new 0 0 100 100" height="100" viewBox="0 0 100 100" width="100" xmlns="http://www.w3.org/2000/svg"><path d="m82.5 41.465v-18.627c2.441-.986 4.167-3.372 4.167-6.172 0-3.685-2.982-6.666-6.667-6.666-3.679 0-6.667 2.981-6.667 6.666 0 2.8 1.726 5.183 4.167 6.172v12.409c-7.168-7.366-16.836-11.914-27.5-11.914s-20.328 4.548-27.5 11.917v-12.412c2.441-.989 4.166-3.372 4.166-6.172 0-3.685-2.982-6.666-6.666-6.666-3.68 0-6.666 2.981-6.666 6.666 0 2.8 1.725 5.183 4.166 6.172v18.63c-4.702 7.102-7.5 15.788-7.5 25.198 0 12.891 17.91 23.334 40 23.334 22.097 0 40-10.443 40-23.334 0-9.414-2.8-18.096-7.5-25.201zm-32.5 31.867c-13.813 0-25-2.984-25-6.666 0-7.813 1.908-14.883 5-20 13.346 4.609 27.656 4.277 40 0 3.093 5.117 5 12.188 5 20 0 3.682-11.194 6.666-25 6.666z"/><path d="m66.667 62.5c0 2.305-1.862 4.166-4.167 4.166s-4.167-1.861-4.167-4.166c0-2.303 1.862-4.168 4.167-4.168s4.167 1.865 4.167 4.168z"/><path d="m41.666 62.5c0 2.305-1.863 4.166-4.166 4.166s-4.166-1.861-4.166-4.166c0-2.303 1.863-4.168 4.166-4.168s4.166 1.865 4.166 4.168z"/></svg>